<svg width="193" height="50" viewBox="0 0 193 50" fill="none" xmlns="http://www.w3.org/2000/svg">
<path d="M2.54091 19.1099L1.06035 20.2482L0.00634766 18.1973L4.02147 13.0711L13.133 20.4764L14.1299 20.4194L16.7513 16.2034L19.3975 12.2453L22.7579 8.5724L24.2111 7.00752L25.9199 2.87832L28.7669 0.82736L31.3883 1.6532L34.6346 4.27208L39.0763 4.18776L41.4397 7.88792L41.7522 11.8485L45.9384 14.8096L50.9803 19.2513L57.1877 17.7434L64.4492 29.2754L69.5753 35.2547L74.3592 33.7742L76.7524 34.8852L81.0527 39.7832L84.6115 41.3506L85.5217 44.3117L90.7347 48.8104L87.8306 49.5222L82.6747 44.1976L77.4642 43.1436L74.8999 39.8973L73.2209 39.813L73.1341 38.1613L74.7287 37.3925L74.389 35.8549L70.3168 37.2486L71.227 43.2006L69.6323 44.1703L65.332 37.5338L61.2028 37.4495L59.9504 35.0563L61.5723 32.2093L60.2059 28.7621L56.6173 28.0801L53.6859 26.7706L55.479 21.9842L52.9444 20.4466L49.9263 21.5006L47.3347 21.3866L50.1544 23.75L50.1817 25.6596L48.5027 24.4915L47.5628 25.4314L48.7879 27.1402L47.9323 29.2482L40.2146 15.6057L38.4786 16.7738L38.1934 18.5395L34.6346 16.8878L34.2626 18.9958L35.7456 20.9327L39.9319 26.7136L41.4124 30.4435H39.1631L38.3645 28.648L37.1964 30.2154L39.9889 34.7711L42.7789 38.444L41.0131 39.2153L37.9082 36.4228L35.887 36.5369L35.2323 34.7141L35.1455 31.8373L32.8961 32.1225L32.725 35.9962L30.5327 35.9392L26.6043 32.9781L25.1238 30.1856L24.9799 27.2542L21.4211 26.969L20.8507 23.6359L16.977 21.7858L15.7543 24.1493L15.7246 27.0261L18.403 30.6717L17.3763 31.5546L12.079 25.7166L9.14763 25.6596L9.63123 24.5758L12.4212 24.6056L12.5651 21.5304L10.2859 21.5577L9.91643 23.2391L8.63427 22.6985L7.46619 21.0468L6.41219 21.7858V23.9211L4.76051 23.4946L3.22291 21.3022L2.54091 19.1099Z" fill="#1C3278"/>
<path fill-rule="evenodd" clip-rule="evenodd" d="M152.329 13.1966L144.405 4.84144V12.956H142.247V0.129437L142.592 0.0599976L150.411 8.2936V0.300558H152.569V13.1445L152.329 13.1966ZM120.875 13.1618C117.214 13.1618 114.538 10.3818 114.538 6.63695C114.538 2.89215 117.336 0.0947189 120.994 0.0947189C124.652 0.0947189 127.33 2.87479 127.33 6.63695C127.33 10.3991 124.533 13.1618 120.875 13.1618ZM120.944 2.02663C118.526 2.02663 116.852 3.99575 116.852 6.63695C116.852 9.27815 118.526 11.2473 120.944 11.2473C123.362 11.2473 125.019 9.26327 125.019 6.63695C125.019 4.01063 123.345 2.02663 120.944 2.02663ZM110.258 12.9535L110.084 5.37464L106.096 11.4159H105.838L101.816 5.35728L101.677 12.9535H99.5541L100.09 0.14432L100.417 0.109604L106.027 8.49944L111.5 0.109604L111.845 0.14432L112.381 12.9535H110.258ZM129.522 8.10264C129.522 11.3828 131.386 13.1609 134.544 13.1618C137.65 13.1609 139.636 11.3308 139.636 8.10264V0.30056H137.478V7.94888C137.478 10.1065 136.407 11.1952 134.579 11.1952C132.751 11.1952 131.68 10.1238 131.68 7.94888V0.30056H129.522V8.10264ZM160.565 12.956V2.26968H164.57V0.30056H154.384V2.26968H158.407V12.956H160.565ZM173.513 12.9535L172.288 10.0544H167.28L166.055 12.9535H163.828L169.664 0.126953H169.974L175.792 12.9535H173.513ZM169.783 4.1148L167.987 8.34319H171.578L169.783 4.1148ZM177.208 0.30056V12.9535H179.365V0.30056H177.208ZM192.296 13.1966L184.373 4.84144V12.956H182.215V0.129437L182.56 0.0599976L190.379 8.2936V0.300558H192.537V13.1445L192.296 13.1966ZM107.701 23.615V29.0537H109.858V16.4007H107.701V21.6831H101.883V16.4007H99.7252V29.0537H101.883V23.615H107.701ZM112.621 29.0537V16.4007H120.339V18.3698H114.781V21.6856H119.806V23.5853H114.781V27.0895H120.339V29.0586H112.621V29.0537ZM126.985 24.4954L129.748 29.0537H129.751H132.253L128.937 23.9598C130.507 23.2678 131.405 21.9386 131.405 20.2993C131.405 18.0549 129.818 16.3114 126.227 16.3114C124.949 16.3114 123.898 16.3982 122.896 16.5198V29.0537H125.053V24.4781C125.468 24.4954 125.899 24.5128 126.313 24.5128C126.554 24.5128 126.762 24.5128 126.985 24.4954ZM125.051 18.35C125.483 18.2632 125.983 18.2458 126.502 18.2458C128.158 18.2458 129.126 19.1262 129.126 20.4034C129.126 21.8542 128.176 22.7346 126.293 22.7346C125.879 22.7346 125.448 22.7173 125.051 22.6652V18.35ZM133.892 29.0537V16.4007H136.05V29.0537H133.892ZM144.13 29.0537V18.3674H148.135V16.3982H137.949V18.3674H141.972V29.0537H144.13ZM157.078 29.0537L155.853 26.1546H150.845L149.62 29.0537H147.393L153.229 16.2271H153.539L159.357 29.0537H157.078ZM153.348 20.215L151.552 24.4434H155.143L153.348 20.215ZM171.164 22.3577V22.3552L171.167 22.3577H171.164ZM166.142 22.3577H171.164V27.8806C169.817 28.761 168.349 29.262 166.452 29.262C162.844 29.262 159.736 26.6382 159.736 22.7371C159.736 18.8361 162.896 16.1949 166.452 16.1949C168.317 16.1949 169.646 16.7132 170.941 17.5068L169.956 19.2329C168.937 18.5757 167.729 18.1789 166.556 18.1789C163.674 18.1789 162.05 20.215 162.05 22.7371C162.05 25.4304 164.034 27.3474 166.539 27.3474C167.628 27.3474 168.352 27.1565 169.093 26.7423V24.2574H166.142V22.3577ZM173.547 29.0537V16.4007H181.265V18.3698H175.707V21.6856H180.732V23.5853H175.707V27.0895H181.265V29.0586H173.547V29.0537ZM104.958 45.1538V34.4675H108.963V32.4984H98.7778V34.4675H102.8V45.1538H104.958ZM117.646 45.1538L114.883 40.5956C114.66 40.613 114.452 40.613 114.211 40.613H114.211C113.797 40.613 113.365 40.5956 112.951 40.5782V45.1538H110.793V32.6199C111.795 32.4984 112.847 32.4116 114.124 32.4116C117.715 32.4116 119.302 34.155 119.302 36.3994C119.302 38.0387 118.405 39.368 116.835 40.0599L120.15 45.1538H117.648H117.646ZM114.399 34.346C113.881 34.346 113.38 34.3634 112.949 34.4502V38.7654C113.345 38.8174 113.777 38.8348 114.191 38.8348C116.073 38.8348 117.023 37.9544 117.023 36.5036C117.023 35.2264 116.056 34.346 114.399 34.346ZM121.564 40.3005C121.564 43.5806 123.428 45.3587 126.586 45.3597C129.692 45.3587 131.678 43.5286 131.678 40.3005V32.4984H129.52V40.1467C129.52 42.3068 128.449 43.393 126.621 43.393C124.793 43.393 123.722 42.3217 123.722 40.1467V32.4984H121.564V40.3005ZM137.31 45.3597C135.876 45.3597 134.443 44.8414 133.339 44.1172L134.081 42.1828C135.083 42.907 136.29 43.3558 137.379 43.3558C138.708 43.3558 139.296 42.5796 139.296 41.6992C139.296 40.8188 138.917 40.2658 136.913 39.4201C134.703 38.4876 133.91 37.3493 133.91 35.829C133.91 33.9988 135.43 32.2901 138.071 32.2901C139.296 32.2901 140.506 32.7042 141.248 33.2052L140.558 35.1049C139.886 34.6386 138.884 34.2071 138.021 34.2071C136.692 34.2071 136.07 34.9313 136.07 35.777C136.07 36.6226 136.692 37.1236 138.262 37.813C140.764 38.9018 141.491 39.9186 141.491 41.5777C141.491 43.6138 139.921 45.3572 137.312 45.3572L137.31 45.3597ZM148.79 45.1538V34.4675H152.795V32.4984H142.609V34.4675H146.632V45.1538H148.79Z" fill="#1C3278"/>
</svg>
