<svg viewBox="0 0 100 45.69" xmlns="http://www.w3.org/2000/svg" data-name="Layer 1" id="Layer_1">
  <defs>
    <style>
      .cls-1 {
        fill: #e30512;
      }
    </style>
  </defs>
  <g>
    <path d="M13.67,30.84c.17.05.39.11.66.18.04-.12.09-.23.14-.35,1.5-3.26,4.2-4.46,3.4-7.46.45,3.1-2.03,3.78-4.2,7.62" class="cls-1"></path>
    <path d="M23.21,29.52c6.17-1.76,8.66-6.68,8.66-6.68,9.12.71,15.94,8.15,15.94,8.15-6.21-9.28-17.26-10.06-17.26-10.06-2.57,6.97-7.34,8.59-7.34,8.59" class="cls-1"></path>
    <path d="M12.18,20.9c2.07-.12,2.29-1.01,3.73-.47,0,0-.9-1.01-3.24-.37-2.18.59-3.08-.91-3.08-.91,0,0,.69,1.86,2.59,1.75" class="cls-1"></path>
    <path d="M9.44,26.77c-.36-1.05-.77-1.23-.77-1.23-2.63,1.09-1.18,3.01-1.18,3.01-.27-1.38,1.94-1.78,1.94-1.78" class="cls-1"></path>
    <path d="M17.01,16.86c.41,0,1.13.65,1.4.83,0,0-.5.39-1.19.29-.7-.1-.9-.55-.9-.55,0,0,.29-.58.7-.56M17.21,20.62s-1.24,1.96-3.84,1.27c0,0,1.69,2.18,4.45.55,0,0-.09-1.76,1.71-2.52,2.07-.86,4.28-4.23,1.11-6.88,0,0,1.52,1.88-.78,3.4,0,0-2.35-.86-3.23-.53-.88.33-1.27,1.46-1.27,1.46,0,0-2.65-.14-3.26.39-.61.53.25,1.88.25,1.88,0,0,2.9-1.24,4.87.97" class="cls-1"></path>
    <path d="M10.09,27.25c.87,2.55,2.96,3.37,2.96,3.37.43-.95,1.06-1.79,1.06-1.79-3.23-1.55-2.72-4.2-5.05-4.7-2.22-.48-3.02,1.28-3.02,1.28,2.15-1.68,3.43.03,4.05,1.85" class="cls-1"></path>
    <path d="M23.8,28.28c5.8-4.04,4.4-10.57,4.4-10.57,7.2-2.79,12.55-.44,12.55-.44-7.34-3.6-14.9-.51-14.9-.51,2.27,7.78-2.06,11.53-2.06,11.53" class="cls-1"></path>
    <path d="M20.84,31.02s5.84-3.86,2.52-12.72c0,0-.14,1.42-1.47,2.35,0,0,2.88,6.34-1.06,10.38" class="cls-1"></path>
    <path d="M40.1,17.85c-3.01.15-3.67,3.38-3.67,3.38.88.22,1.76.65,1.76.65.07-3.08,1.91-4.03,1.91-4.03" class="cls-1"></path>
    <polygon points="43.47 32.65 47.81 34.82 52.22 32.65 59.77 32.65 59.77 39.17 52.16 39.17 52.16 35.62 47.81 37.81 43.47 35.62 43.47 39.17 35.86 39.17 35.86 32.65 43.47 32.65" class="cls-1"></polygon>
    <polygon points="70.65 32.65 75 34.82 79.41 32.65 86.95 32.65 86.95 39.17 79.34 39.17 79.34 35.62 75 37.81 70.65 35.62 70.65 39.17 63.04 39.17 63.04 32.65 70.65 32.65" class="cls-1"></polygon>
    <path d="M23.92,36.72c1.09,0,2.7,0,2.7-.81s-1.61-.81-2.7-.81h-4.35s0,1.63,0,1.63h4.35ZM13.06,32.65h14.13c5.43,0,6.52,1.75,6.52,3.26s-1.09,3.26-6.54,3.26h-14.11v-6.52Z" class="cls-1"></path>
  </g>
  <g>
    <path d="M13.67,30.84c.17.05.39.11.66.18.04-.12.09-.23.14-.35,1.5-3.26,4.2-4.46,3.4-7.46.45,3.1-2.03,3.78-4.2,7.62" class="cls-1"></path>
    <path d="M23.21,29.52c6.17-1.76,8.66-6.68,8.66-6.68,9.12.71,15.94,8.15,15.94,8.15-6.21-9.28-17.26-10.06-17.26-10.06-2.57,6.97-7.34,8.59-7.34,8.59" class="cls-1"></path>
    <path d="M12.18,20.9c2.07-.12,2.29-1.01,3.73-.47,0,0-.9-1.01-3.24-.37-2.18.59-3.08-.91-3.08-.91,0,0,.69,1.86,2.59,1.75" class="cls-1"></path>
    <path d="M9.44,26.77c-.36-1.05-.77-1.23-.77-1.23-2.63,1.09-1.18,3.01-1.18,3.01-.27-1.38,1.94-1.78,1.94-1.78" class="cls-1"></path>
    <path d="M17.01,16.86c.41,0,1.13.65,1.4.83,0,0-.5.39-1.19.29-.7-.1-.9-.55-.9-.55,0,0,.29-.58.7-.56M17.21,20.62s-1.24,1.96-3.84,1.27c0,0,1.69,2.18,4.45.55,0,0-.09-1.76,1.71-2.52,2.07-.86,4.28-4.23,1.11-6.88,0,0,1.52,1.88-.78,3.4,0,0-2.35-.86-3.23-.53-.88.33-1.27,1.46-1.27,1.46,0,0-2.65-.14-3.26.39-.61.53.25,1.88.25,1.88,0,0,2.9-1.24,4.87.97" class="cls-1"></path>
    <path d="M10.09,27.25c.87,2.55,2.96,3.37,2.96,3.37.43-.95,1.06-1.79,1.06-1.79-3.23-1.55-2.72-4.2-5.05-4.7-2.22-.48-3.02,1.28-3.02,1.28,2.15-1.68,3.43.03,4.05,1.85" class="cls-1"></path>
    <path d="M23.8,28.28c5.8-4.04,4.4-10.57,4.4-10.57,7.2-2.79,12.55-.44,12.55-.44-7.34-3.6-14.9-.51-14.9-.51,2.27,7.78-2.06,11.53-2.06,11.53" class="cls-1"></path>
    <path d="M20.84,31.02s5.84-3.86,2.52-12.72c0,0-.14,1.42-1.47,2.35,0,0,2.88,6.34-1.06,10.38" class="cls-1"></path>
    <path d="M40.1,17.85c-3.01.15-3.67,3.38-3.67,3.38.88.22,1.76.65,1.76.65.07-3.08,1.91-4.03,1.91-4.03" class="cls-1"></path>
    <polygon points="43.47 32.65 47.81 34.82 52.22 32.65 59.77 32.65 59.77 39.17 52.16 39.17 52.16 35.62 47.81 37.81 43.47 35.62 43.47 39.17 35.86 39.17 35.86 32.65 43.47 32.65" class="cls-1"></polygon>
    <polygon points="70.65 32.65 75 34.82 79.41 32.65 86.95 32.65 86.95 39.17 79.34 39.17 79.34 35.62 75 37.81 70.65 35.62 70.65 39.17 63.04 39.17 63.04 32.65 70.65 32.65" class="cls-1"></polygon>
    <path d="M23.92,36.72c1.09,0,2.7,0,2.7-.81s-1.61-.81-2.7-.81h-4.35s0,1.63,0,1.63h4.35ZM13.06,32.65h14.13c5.43,0,6.52,1.75,6.52,3.26s-1.09,3.26-6.54,3.26h-14.11v-6.52Z" class="cls-1"></path>
    <path d="M91.89,34.28c0,.93-.71,1.63-1.63,1.63s-1.63-.71-1.63-1.63.71-1.63,1.63-1.63,1.63.7,1.63,1.63ZM91.62,34.28c0-.78-.59-1.37-1.37-1.37s-1.37.59-1.37,1.37.59,1.37,1.37,1.37,1.37-.59,1.37-1.37ZM91,33.89c0,.28-.15.46-.38.52l.37.72h-.36l-.35-.69h-.34v.69h-.3v-1.78h.78c.32,0,.58.17.58.54ZM90.69,33.9c0-.17-.12-.25-.28-.25h-.47v.51h.47c.16,0,.28-.08.28-.25Z" class="cls-1"></path>
  </g>
</svg>